<?xml version="1.0" encoding="UTF-8" standalone="no"?>
<!-- Created with Inkscape (http://www.inkscape.org/) -->

<svg
   width="48"
   height="48"
   viewBox="0 0 12.7 12.7"
   version="1.1"
   id="svg1"
   xml:space="preserve"
   inkscape:version="1.4 (e7c3feb, 2024-10-09)"
   sodipodi:docname="ZapStore.svg"
   xmlns:inkscape="http://www.inkscape.org/namespaces/inkscape"
   xmlns:sodipodi="http://sodipodi.sourceforge.net/DTD/sodipodi-0.dtd"
   xmlns="http://www.w3.org/2000/svg"
   xmlns:svg="http://www.w3.org/2000/svg"><sodipodi:namedview
     id="namedview1"
     pagecolor="#ffffff"
     bordercolor="#000000"
     borderopacity="0.25"
     inkscape:showpageshadow="2"
     inkscape:pageopacity="0.0"
     inkscape:pagecheckerboard="0"
     inkscape:deskcolor="#d1d1d1"
     inkscape:document-units="px"
     inkscape:zoom="11.458333"
     inkscape:cx="24"
     inkscape:cy="24"
     inkscape:window-width="1366"
     inkscape:window-height="761"
     inkscape:window-x="0"
     inkscape:window-y="0"
     inkscape:window-maximized="1"
     inkscape:current-layer="layer5" /><defs
     id="defs1"><linearGradient
       id="swatch6"
       inkscape:swatch="solid"><stop
         style="stop-color:#6161ff;stop-opacity:1;"
         offset="0"
         id="stop6" /></linearGradient></defs><g
     inkscape:label="Livello 1"
     inkscape:groupmode="layer"
     id="layer1"><rect
       style="display:inline;fill:#6161ff;fill-opacity:1;stroke:#000000;stroke-width:0;stroke-linejoin:bevel;stroke-dasharray:none;stroke-opacity:1;paint-order:fill markers stroke"
       id="rect1"
       width="10.507396"
       height="10.507395"
       x="1.0963022"
       y="1.0963026"
       inkscape:label="Backgroung"
       sodipodi:insensitive="true" /></g><g
     inkscape:groupmode="layer"
     id="layer5"
     inkscape:label="Livello 2"><path
       style="display:inline;fill:#fefefd;fill-opacity:1;stroke:#000000;stroke-width:0;stroke-dasharray:none;stroke-opacity:1"
       d="M 6.2190829,9.2556827 C 5.7706422,8.9305541 5.3828071,8.6452291 5.3572273,8.6216271 5.3250433,8.5919311 5.2821448,8.5387354 5.2821448,8.4855974 c 0,-0.1243212 0.072532,-0.1389624 0.3457503,-0.2071253 0.2791625,-0.069646 0.3442815,-0.112156 0.3442815,-0.2247496 0,-0.056615 -0.1617284,-0.3295604 -0.8337866,-1.4071634 C 4.6798076,5.9112508 4.2937847,5.2893175 4.2805615,5.264485 4.2429223,5.1938007 4.2401881,5.1080444 4.3065239,5.0575731 4.3597528,5.0170741 4.4322242,4.999666 4.523938,5.0053488 l 0.720765,-0.00577 c 0.8590176,-0.00688 0.8851234,-0.00364 0.941061,-0.029939 0.04626,-0.024233 0.055326,-0.066741 0.056709,-0.098508 0.00151,-0.034669 -0.039545,-0.30386 -0.1779863,-0.9301786 C 5.9569675,3.4545273 5.8689583,3.0232824 5.8689106,2.982631 5.8687258,2.8249876 6.0714782,2.7558183 6.1824255,2.875675 6.2916798,2.9937027 8.4077796,5.9147303 8.427327,5.9552084 8.474868,6.0536544 8.423657,6.1166716 8.360049,6.138083 8.312345,6.15414 8.1791154,6.175739 7.5334597,6.198041 6.8749031,6.220788 6.7495214,6.230053 6.7049468,6.259259 6.5953851,6.331047 6.5958094,6.341216 6.7379788,7.0509616 6.9096943,7.9082078 6.9046554,7.9022123 7.3157644,7.738427 7.4299096,7.692952 7.547084,7.655745 7.5761521,7.655745 c 0.061954,0 0.1781525,0.021206 0.1729051,0.1586068 -7.928e-4,0.020759 -0.106319,0.46997 -0.2356665,0.9981324 C 7.2559518,9.8636802 7.208634,9.8950781 7.1312053,9.883563 7.0646839,9.8736701 6.9371387,9.7762876 6.2190829,9.2556827 Z"
       id="path9"
       inkscape:label="Fulmine"
       sodipodi:nodetypes="sssssssscscsssssssssssssss" /></g></svg>
